<svg xmlns="http://www.w3.org/2000/svg" viewBox="0 0 778 220" width="778" height="220">
<g transform="translate(0 10.00) scale(0.7813)">
<rect x="8" y="8" width="240" height="240" rx="58" fill="#C9A24B"/>
<path d="M58 92 Q124 20 204 64" fill="none" stroke="#201E27" stroke-width="9" stroke-linecap="round"/>
<circle cx="204" cy="64" r="7.5" fill="#201E27"/>
<g transform="translate(81.31 191.97)" fill="#201E27"><path d="M86.72-78.30Q86.72-70.17 83.53-63.90Q80.35-57.64 74.71-53.54Q69.14-49.44 62.48-47.53Q55.81-45.63 48.34-45.63L36.69-45.63L36.69-14.14Q36.69-11.57 37.54-9.63Q38.38-7.69 41.02-6.67Q42.33-6.15 45.67-5.71Q49-5.27 51.78-5.20L51.78 0L7.18 0L7.18-5.20Q8.94-5.35 12.27-5.71Q15.60-6.08 16.92-6.67Q19.12-7.62 20.10-9.45Q21.09-11.28 21.09-14.14L21.09-89.14Q21.09-91.70 20.36-93.75Q19.63-95.80 16.92-96.83Q14.14-97.78 11.39-98.18Q8.64-98.58 6.67-98.73L6.67-103.93L54.13-103.93Q68.63-103.93 77.67-96.94Q86.72-89.94 86.72-78.30M64.45-60.57Q66.94-64.09 67.75-67.86Q68.55-71.63 68.55-74.63Q68.55-78.81 67.57-83.13Q66.58-87.45 64.16-90.67Q61.60-94.12 57.42-96.02Q53.25-97.92 47.02-97.92L36.69-97.92L36.69-52L44.17-52Q52.08-52 57.02-54.46Q61.96-56.91 64.45-60.57"/></g>
</g>
<g transform="translate(0 155.41)" fill="#C9A24B"><path d="M312.31-68.90Q312.31-61.75 309.51-56.24Q306.71-50.72 301.74-47.12Q296.84-43.51 290.98-41.83Q285.11-40.15 278.54-40.15L268.29-40.15L268.29-12.44Q268.29-10.18 269.03-8.48Q269.77-6.77 272.09-5.87Q273.25-5.41 276.19-5.03Q279.12-4.64 281.57-4.58L281.57 0L242.32 0L242.32-4.58Q243.86-4.71 246.80-5.03Q249.73-5.35 250.89-5.87Q252.82-6.70 253.69-8.31Q254.56-9.93 254.56-12.44L254.56-78.44Q254.56-80.70 253.92-82.50Q253.27-84.30 250.89-85.21Q248.44-86.04 246.02-86.40Q243.61-86.75 241.87-86.88L241.87-91.46L283.63-91.46Q296.39-91.46 304.35-85.30Q312.31-79.15 312.31-68.90M292.72-53.30Q294.91-56.40 295.62-59.72Q296.33-63.04 296.33-65.68Q296.33-69.35 295.46-73.15Q294.59-76.96 292.46-79.79Q290.21-82.82 286.53-84.50Q282.86-86.17 277.38-86.17L268.29-86.17L268.29-45.76L274.87-45.76Q281.83-45.76 286.18-47.92Q290.53-50.08 292.72-53.30M369.80-55.37Q369.80-52.08 368.19-49.53Q366.58-46.99 363.23-46.99Q359.62-46.99 357.72-48.86Q355.82-50.72 355.82-52.98Q355.82-54.40 356.04-55.56Q356.27-56.72 356.46-57.88Q353.43-57.88 349.37-55.43Q345.31-52.98 342.48-48.47L342.48-11.47Q342.48-9.22 343.35-7.80Q344.22-6.38 346.09-5.67Q347.70-5.03 350.24-4.71Q352.79-4.38 354.66-4.25L354.66 0L321.14 0L321.14-4.25Q322.63-4.38 324.20-4.51Q325.78-4.64 326.94-5.03Q328.75-5.61 329.62-7.06Q330.49-8.51 330.49-10.83L330.49-50.08Q330.49-52.08 329.55-54.01Q328.62-55.95 326.94-57.11Q325.72-57.88 324.04-58.23Q322.37-58.59 320.43-58.72L320.43-62.91L341.57-64.32L342.48-63.42L342.48-54.46L342.80-54.46Q346.79-59.68 351.69-62.39Q356.59-65.10 360.65-65.10Q364.71-65.10 367.26-62.46Q369.80-59.81 369.80-55.37M437.16-32.42Q437.16-25.72 435.03-19.24Q432.90-12.76 428.97-8.25Q424.53-3.09 418.66-0.58Q412.79 1.93 405.51 1.93Q399.45 1.93 393.97-0.35Q388.50-2.64 384.24-7.03Q380.05-11.34 377.57-17.56Q375.09-23.78 375.09-31.52Q375.09-46.41 383.76-55.88Q392.43-65.36 406.48-65.36Q419.82-65.36 428.49-56.36Q437.16-47.37 437.16-32.42M423.82-32.29Q423.82-37.12 422.85-42.51Q421.88-47.89 419.95-51.63Q417.89-55.62 414.54-58.04Q411.18-60.46 406.35-60.46Q401.39-60.46 397.87-58.01Q394.36-55.56 392.17-51.30Q390.11-47.37 389.27-42.35Q388.43-37.32 388.43-32.61Q388.43-26.43 389.43-21.17Q390.43-15.92 392.62-11.79Q394.81-7.67 398.13-5.32Q401.45-2.96 406.35-2.96Q414.41-2.96 419.11-10.76Q423.82-18.56 423.82-32.29M488.33-31.13Q490.98-28.81 492.39-25.78Q493.81-22.75 493.81-18.37Q493.81-9.54 487.21-3.93Q480.60 1.68 470.09 1.68Q464.55 1.68 459.88-0.32Q455.21-2.32 453.21-4L451.92 0.19L447.08 0.19L446.44-21.91L450.89-21.91Q451.40-19.40 453.08-16.05Q454.75-12.70 457.14-9.99Q459.65-7.15 463.17-5.22Q466.68-3.29 471.06-3.29Q477.25-3.29 480.60-6.09Q483.95-8.89 483.95-14.12Q483.95-16.82 482.89-18.79Q481.82-20.75 479.76-22.24Q477.63-23.72 474.54-24.91Q471.45-26.10 467.64-27.26Q464.62-28.17 460.91-29.75Q457.20-31.32 454.56-33.45Q451.72-35.71 449.92-38.99Q448.12-42.28 448.12-46.73Q448.12-54.53 453.92-59.94Q459.72-65.36 469.45-65.36Q473.19-65.36 477.09-64.39Q480.99-63.42 483.44-62.07L484.92-65.42L489.56-65.42L490.53-44.99L486.08-44.99Q484.72-51.82 480.25-56.11Q475.77-60.39 469.32-60.39Q464.04-60.39 461.01-57.75Q457.98-55.11 457.98-51.37Q457.98-48.47 458.98-46.54Q459.97-44.60 461.97-43.25Q463.91-41.96 466.84-40.83Q469.77-39.70 474.09-38.29Q478.34-36.93 482.11-35.13Q485.88-33.32 488.33-31.13M555.37-17.72L559.88-14.95Q555.88-7.35 549.18-2.84Q542.47 1.68 533.77 1.68Q526.10 1.68 520.33-1.03Q514.57-3.74 510.83-8.38Q507.09-13.02 505.25-19.21Q503.42-25.39 503.42-32.29Q503.42-38.48 505.38-44.44Q507.35-50.40 511.15-55.17Q514.82-59.75 520.27-62.55Q525.72-65.36 532.48-65.36Q539.45-65.36 544.41-63.16Q549.37-60.97 552.46-57.17Q555.43-53.56 556.88-48.66Q558.33-43.76 558.33-38.03L558.33-33.77L516.24-33.77Q516.24-27.52 517.43-22.43Q518.63-17.34 521.21-13.47Q523.72-9.73 527.78-7.57Q531.84-5.41 537.45-5.41Q543.18-5.41 547.34-8.09Q551.50-10.76 555.37-17.72M516.24-39.19L545.63-39.19Q545.63-42.80 545.02-46.92Q544.41-51.05 543.05-53.82Q541.57-56.78 538.99-58.65Q536.42-60.52 532.36-60.52Q525.59-60.52 521.11-54.88Q516.63-49.24 516.24-39.19M654.17-4.58L654.17 0L616.08 0L616.08-4.58Q621.11-4.90 624.43-5.87Q627.75-6.83 627.75-8.25Q627.75-8.83 627.62-9.67Q627.49-10.51 627.23-11.15L619.63-31.65L587.59-31.65Q585.79-27.13 584.66-23.78Q583.53-20.43 582.63-17.60Q581.79-14.82 581.47-13.08Q581.15-11.34 581.15-10.25Q581.15-7.67 585.21-6.25Q589.27-4.83 594.36-4.58L594.36 0L559.94 0L559.94-4.58Q561.62-4.71 564.13-5.32Q566.64-5.93 568.26-6.96Q570.83-8.70 572.25-10.60Q573.67-12.50 575.02-15.86Q581.92-33.06 590.23-54.53Q598.55-75.99 605.06-92.75L610.21-92.75L640.70-13.86Q641.67-11.34 642.89-9.80Q644.12-8.25 646.31-6.77Q647.79-5.87 650.18-5.25Q652.56-4.64 654.17-4.58M589.85-37.38L617.30-37.38L603.45-72.83L589.85-37.38M704.45-55.37Q704.45-52.08 702.83-49.53Q701.22-46.99 697.87-46.99Q694.26-46.99 692.36-48.86Q690.46-50.72 690.46-52.98Q690.46-54.40 690.68-55.56Q690.91-56.72 691.10-57.88Q688.07-57.88 684.01-55.43Q679.95-52.98 677.12-48.47L677.12-11.47Q677.12-9.22 677.99-7.80Q678.86-6.38 680.73-5.67Q682.34-5.03 684.88-4.71Q687.43-4.38 689.30-4.25L689.30 0L655.78 0L655.78-4.25Q657.27-4.38 658.84-4.51Q660.42-4.64 661.58-5.03Q663.39-5.61 664.26-7.06Q665.13-8.51 665.13-10.83L665.13-50.08Q665.13-52.08 664.19-54.01Q663.26-55.95 661.58-57.11Q660.36-57.88 658.68-58.23Q657.01-58.59 655.07-58.72L655.07-62.91L676.21-64.32L677.12-63.42L677.12-54.46L677.44-54.46Q681.44-59.68 686.33-62.39Q691.23-65.10 695.29-65.10Q699.35-65.10 701.90-62.46Q704.45-59.81 704.45-55.37M739.25 1.68Q725.46 1.68 717.66-7.48Q709.86-16.63 709.86-32.03Q709.86-38.74 711.95-44.57Q714.05-50.40 718.04-55.17Q721.85-59.75 727.58-62.55Q733.32-65.36 740.09-65.36Q749.43-65.36 755.30-60.88Q761.16-56.40 761.16-48.66Q761.16-45.44 759.62-42.96Q758.07-40.48 754.53-40.48Q750.72-40.48 748.63-42.41Q746.53-44.34 746.53-46.73Q746.53-49.63 747.31-52.69Q748.08-55.75 748.21-57.17Q747.05-59.17 744.76-59.84Q742.47-60.52 739.83-60.52Q736.74-60.52 733.93-59.20Q731.13-57.88 728.49-54.33Q726.10-51.11 724.62-45.63Q723.14-40.15 723.14-32.55Q723.14-20.56 728.45-12.99Q733.77-5.41 742.41-5.41Q748.66-5.41 752.88-8.44Q757.10-11.47 760.71-17.53L764.84-14.82Q760.58-7.22 753.62-2.77Q746.66 1.68 739.25 1.68"/></g>
</svg>