<svg xmlns="http://www.w3.org/2000/svg" viewBox="0 0 256 256" width="256" height="256">
<path d="M58 92 Q124 20 204 64" fill="none" stroke="#C9A24B" stroke-width="9" stroke-linecap="round"/>
<circle cx="204" cy="64" r="7.5" fill="#C9A24B"/>
<g transform="translate(81.31 191.97)" fill="#C9A24B"><path d="M86.72-78.30Q86.72-70.17 83.53-63.90Q80.35-57.64 74.71-53.54Q69.14-49.44 62.48-47.53Q55.81-45.63 48.34-45.63L36.69-45.63L36.69-14.14Q36.69-11.57 37.54-9.63Q38.38-7.69 41.02-6.67Q42.33-6.15 45.67-5.71Q49-5.27 51.78-5.20L51.78 0L7.18 0L7.18-5.20Q8.94-5.35 12.27-5.71Q15.60-6.08 16.92-6.67Q19.12-7.62 20.10-9.45Q21.09-11.28 21.09-14.14L21.09-89.14Q21.09-91.70 20.36-93.75Q19.63-95.80 16.92-96.83Q14.14-97.78 11.39-98.18Q8.64-98.58 6.67-98.73L6.67-103.93L54.13-103.93Q68.63-103.93 77.67-96.94Q86.72-89.94 86.72-78.30M64.45-60.57Q66.94-64.09 67.75-67.86Q68.55-71.63 68.55-74.63Q68.55-78.81 67.57-83.13Q66.58-87.45 64.16-90.67Q61.60-94.12 57.42-96.02Q53.25-97.92 47.02-97.92L36.69-97.92L36.69-52L44.17-52Q52.08-52 57.02-54.46Q61.96-56.91 64.45-60.57"/></g>
</svg>